<?xml version="1.0" encoding="UTF-8" standalone="no" ?>
<!DOCTYPE svg PUBLIC "-//W3C//DTD SVG 1.1//EN" "http://www.w3.org/Graphics/SVG/1.1/DTD/svg11.dtd">
<svg xmlns="http://www.w3.org/2000/svg" xmlns:xlink="http://www.w3.org/1999/xlink" version="1.1" width="1080" height="1080" viewBox="0 0 1080 1080" xml:space="preserve">
<desc>Created with Fabric.js 5.2.4</desc>
<defs>
</defs>
<g transform="matrix(1 0 0 1 540 540)" id="3f51f410-2739-4e3f-8305-82afc7571af5"  >
<rect style="stroke: none; stroke-width: 1; stroke-dasharray: none; stroke-linecap: butt; stroke-dashoffset: 0; stroke-linejoin: miter; stroke-miterlimit: 4; fill: rgb(255,255,255); fill-rule: nonzero; opacity: 1; visibility: hidden;" vector-effect="non-scaling-stroke"  x="-540" y="-540" rx="0" ry="0" width="1080" height="1080" />
</g>
<g transform="matrix(1 0 0 1 540 540)" id="af8130df-6664-414b-a37a-b552d1d1883b"  >
</g>
<g transform="matrix(1 0 0 1 540 540)" id="062ae522-02ca-4973-9714-1d45174a767c"  >
<path style="stroke: rgb(0,0,0); stroke-width: 0; stroke-dasharray: none; stroke-linecap: butt; stroke-dashoffset: 0; stroke-linejoin: miter; stroke-miterlimit: 4; fill: rgb(204,204,204); fill-rule: nonzero; opacity: 1;" vector-effect="non-scaling-stroke"  transform=" translate(-319.98, -256)" d="M 208 352 C 322.9 352 416 273.2 416 176 C 416 78.80000000000001 322.9 0 208 0 C 93.10000000000002 0 0 78.8 0 176 C 0 214.6 14.7 250.3 39.6 279.4 C 36.1 288.79999999999995 30.900000000000002 297.09999999999997 25.400000000000002 304.09999999999997 C 20.6 310.29999999999995 15.700000000000003 315.09999999999997 12.100000000000001 318.4 C 10.3 320 8.8 321.29999999999995 7.800000000000002 322.09999999999997 C 7.300000000000002 322.49999999999994 6.900000000000001 322.79999999999995 6.700000000000001 322.9 L 6.500000000000001 323.09999999999997 C 6.500000000000001 323.09999999999997 6.500000000000001 323.09999999999997 6.500000000000001 323.09999999999997 C 6.500000000000001 323.09999999999997 6.500000000000001 323.09999999999997 6.500000000000001 323.09999999999997 C 1 327.2 -1.4 334.4 0.8 340.9 C 3 347.4 9.1 352 16 352 C 37.8 352 59.8 346.4 78.1 339.5 C 87.3 336 95.89999999999999 332.1 103.3 328.1 C 134.1 343.3 169.8 352 208 352 z M 448 176 C 448 288.3 348.9 372.9 231.5 383 C 255.8 457.4 336.4 512 432 512 C 470.2 512 505.9 503.3 536.7 488.1 C 544.2 492.1 552.7 496 561.9000000000001 499.5 C 580.2 506.4 602.2 512 624.0000000000001 512 C 630.9000000000001 512 637.1000000000001 507.5 639.2000000000002 500.9 C 641.3000000000002 494.29999999999995 639.0000000000001 487.09999999999997 633.4000000000002 483 C 633.4000000000002 483 633.4000000000002 483 633.4000000000002 483 C 633.4000000000002 483 633.4000000000002 483 633.4000000000002 483 L 633.2000000000002 482.8 C 633.0000000000001 482.6 632.6000000000001 482.40000000000003 632.1000000000001 482 C 631.1000000000001 481.2 629.6000000000001 480 627.8000000000002 478.3 C 624.2000000000002 475 619.3000000000002 470.2 614.5000000000002 464 C 609.0000000000002 457 603.8000000000002 448.6 600.3000000000002 439.3 C 625.2000000000002 410.3 639.9000000000002 374.6 639.9000000000002 335.9 C 639.9000000000002 243.09999999999997 555.0000000000002 166.99999999999997 447.3000000000002 160.39999999999998 C 447.70000000000016 165.49999999999997 447.9000000000002 170.7 447.9000000000002 175.89999999999998 z" stroke-linecap="round" />
</g>
</svg>